# xmcd CD database file
#
# Track frame offsets:
#	150
#	7775
#	17800
#	25750
#	36600
#	47150
#	56975
#	70175
#	80125
#	89175
#
# Disc length: 1335 seconds
#
# Revision: 0
# Processed by: cddbd v1.4PL0 Copyright (c) Steve Scherf et al.
# Submitted via: Feurio! 1.60.2ß - http://www.feurio.com
#
DISCID=8805350a
DTITLE=Johnny Cash and Jerry Lee Lewis - sing Hank Williams
DYEAR=1991
DGENRE=Country
TTITLE0=Hey good looking/ Johnny Cash
TTITLE1=I could never be ashamed of you/ Johnny Cash
TTITLE2=I can`t help it/ Johnny Cash
TTITLE3=I heard that lonesome whistle/ Johnny Cash
TTITLE4=Cold, cold heart/ Johnny Cash
TTITLE5=Lovesick blues/Jerry Lee Lewis
TTITLE6=You win again/Jerry Lee Lewis
TTITLE7=Your cheating heart/Jerry Lee Lewis
TTITLE8=Jambalaya/Jerry Lee Lewis
TTITLE9=Settin` the woods on fire/Jerry Lee Lewis
EXTD=
EXTT0=
EXTT1=
EXTT2=
EXTT3=
EXTT4=
EXTT5=
EXTT6=
EXTT7=
EXTT8=
EXTT9=
PLAYORDER=
